<svg width="27" height="36" viewBox="0 0 27 36" fill="none" xmlns="http://www.w3.org/2000/svg">
<path d="M13.5 0C15.0345 0 16.5061 0.598871 17.5911 1.66487C18.6762 2.73086 19.2857 4.17666 19.2857 5.68421V17.0526C19.2857 18.5602 18.6762 20.006 17.5911 21.072C16.5061 22.138 15.0345 22.7368 13.5 22.7368C11.9655 22.7368 10.4939 22.138 9.40888 21.072C8.32385 20.006 7.71429 18.5602 7.71429 17.0526V5.68421C7.71429 4.17666 8.32385 2.73086 9.40888 1.66487C10.4939 0.598871 11.9655 0 13.5 0ZM27 17.0526C27 23.7411 21.9664 29.2547 15.4286 30.1832V36H11.5714V30.1832C5.03357 29.2547 0 23.7411 0 17.0526H3.85714C3.85714 19.5652 4.87308 21.9749 6.68147 23.7515C8.48986 25.5282 10.9426 26.5263 13.5 26.5263C16.0574 26.5263 18.5101 25.5282 20.3185 23.7515C22.1269 21.9749 23.1429 19.5652 23.1429 17.0526H27Z" fill="white"/>
</svg>
